<?xml version="1.0" standalone="no"?>
<!DOCTYPE svg PUBLIC "-//W3C//DTD SVG 20010904//EN"
 "http://www.w3.org/TR/2001/REC-SVG-20010904/DTD/svg10.dtd">
<svg version="1.0" xmlns="http://www.w3.org/2000/svg"
 width="512.000000pt" height="384.000000pt" viewBox="0 0 512.000000 384.000000"
 preserveAspectRatio="xMidYMid meet">

<g transform="translate(0.000000,384.000000) scale(0.100000,-0.100000)"
fill="white" stroke="white">
<path d="M964 2716 c-29 -14 -63 -39 -80 -62 -45 -57 -107 -181 -98 -195 4 -7
3 -10 -3 -6 -13 8 -96 -160 -87 -175 4 -7 3 -8 -4 -4 -10 6 -45 -52 -46 -79
-1 -5 -4 -12 -7 -15 -16 -13 -59 -112 -53 -122 5 -7 2 -8 -6 -3 -10 6 -12 4
-6 -11 4 -10 4 -15 0 -11 -7 7 -31 -39 -102 -198 -53 -119 -65 -168 -57 -230
14 -106 68 -185 160 -233 42 -22 64 -26 131 -27 74 0 87 3 155 38 41 20 102
62 136 92 33 30 64 55 67 55 3 0 13 -8 23 -19 46 -49 129 -111 141 -106 7 2
11 1 8 -4 -3 -5 18 -19 47 -32 68 -30 194 -33 247 -5 94 49 150 119 171 211
12 55 5 150 -12 140 -5 -3 -6 1 -3 9 8 22 -37 120 -48 104 -6 -9 -7 -6 -3 8 7
26 -104 266 -118 257 -6 -3 -7 -1 -3 6 9 14 -223 483 -235 475 -5 -3 -7 1 -4
8 2 7 -11 35 -31 61 -66 91 -177 119 -280 73z m173 -66 c-1 -3 13 -20 31 -38
30 -32 257 -473 367 -714 27 -58 54 -104 59 -101 5 3 6 1 2 -5 -3 -6 3 -34 15
-64 82 -209 -114 -385 -315 -283 -32 16 -86 56 -122 88 l-64 59 28 36 c51 67
81 116 114 187 30 64 33 79 33 167 0 91 -2 99 -30 140 -64 92 -194 124 -301
74 -63 -29 -99 -74 -118 -148 -13 -50 -13 -65 1 -129 20 -100 102 -257 126
-242 6 3 7 1 3 -5 -4 -7 5 -27 19 -46 16 -22 22 -37 15 -41 -6 -3 -7 -12 -4
-18 4 -7 4 -9 -1 -5 -11 11 -36 -12 -28 -26 3 -6 3 -8 -2 -4 -4 4 -26 -8 -49
-28 -140 -120 -311 -117 -394 8 -24 36 -27 51 -26 112 3 103 7 147 14 136 4
-6 31 42 60 107 30 65 120 251 201 413 81 162 148 300 150 305 3 13 39 41 76
61 26 13 143 17 140 4z m-20 -507 c-4 -4 6 -12 23 -19 73 -31 93 -150 44 -267
-25 -58 -112 -197 -125 -197 -6 0 -85 118 -94 142 -4 10 -12 15 -19 11 -6 -3
-8 -3 -4 2 4 4 1 22 -6 39 -45 108 -40 193 14 246 28 28 52 35 130 43 19 2 37
5 39 5 2 1 1 -1 -2 -5z"/>
<path d="M2620 2457 c-78 -40 -48 -157 40 -157 32 0 80 48 80 80 0 59 -70 103
-120 77z m-10 -42 c0 -8 -4 -15 -10 -15 -5 0 -7 7 -4 15 4 8 8 15 10 15 2 0 4
-7 4 -15z"/>
<path d="M3180 2085 l0 -385 60 0 c53 0 60 2 60 20 0 25 4 25 40 -2 55 -40
227 -33 214 10 -5 14 -4 14 5 2 8 -12 16 -10 48 16 114 92 126 293 25 400 -78
82 -220 102 -304 43 l-28 -20 0 150 0 151 -60 0 -60 0 0 -385z m37 369 c-3 -3
-12 -4 -19 -1 -8 3 -5 6 6 6 11 1 17 -2 13 -5z m287 -359 c50 -24 76 -70 76
-134 0 -81 -37 -136 -99 -147 -20 -4 -43 -10 -52 -15 -10 -5 -35 2 -70 20 -30
15 -60 26 -67 25 -7 -1 -8 0 -2 3 6 3 10 47 10 107 0 114 3 121 70 151 40 17
83 14 134 -10z m-164 11 c0 -2 -7 -6 -15 -10 -8 -3 -15 -1 -15 4 0 6 7 10 15
10 8 0 15 -2 15 -4z m25 -376 c3 -5 1 -10 -4 -10 -6 0 -11 5 -11 10 0 6 2 10
4 10 3 0 8 -4 11 -10z"/>
<path d="M4320 2085 l0 -385 60 0 c53 0 60 2 60 19 0 13 6 19 19 18 11 0 17
-5 15 -9 -9 -14 62 -38 108 -38 101 0 184 50 230 139 23 44 28 66 28 127 0 83
-15 128 -54 167 -15 15 -26 30 -25 34 1 5 -22 20 -51 36 -43 22 -65 27 -124
27 -76 0 -120 -18 -110 -45 4 -8 1 -15 -6 -15 -6 0 -8 5 -5 10 3 6 -1 10 -9
10 -14 0 -16 20 -16 145 l0 145 -60 0 -60 0 0 -385z m103 368 c-7 -2 -21 -2
-30 0 -10 3 -4 5 12 5 17 0 24 -2 18 -5z m196 -348 c23 -8 39 -10 36 -5 -3 6
-2 10 2 10 5 0 13 -10 18 -22 6 -13 15 -22 21 -21 11 2 12 -3 20 -90 10 -100
-23 -145 -122 -171 -71 -18 -85 -20 -64 -6 12 8 11 10 -6 10 -12 0 -32 8 -45
19 -13 10 -30 17 -37 15 -7 -1 -9 -1 -5 2 5 2 7 50 5 107 -3 96 -2 104 20 123
23 22 70 42 99 43 9 1 35 -6 58 -14z"/>
<path d="M2187 2219 c-53 -8 -141 -55 -131 -70 3 -5 0 -8 -7 -7 -6 2 -25 -22
-41 -52 -28 -52 -30 -61 -26 -146 4 -85 6 -94 39 -140 19 -27 57 -62 84 -79
43 -26 57 -30 124 -30 63 0 81 4 108 23 38 27 43 27 43 2 0 -18 7 -20 60 -20
l60 0 0 255 0 255 -60 0 c-47 0 -60 -3 -60 -15 0 -20 -19 -19 -42 2 -23 21
-90 31 -151 22z m128 -118 c63 -28 67 -37 63 -150 -2 -56 0 -103 5 -105 4 -3
2 -3 -5 -2 -7 2 -24 -5 -37 -15 -13 -11 -33 -19 -45 -19 -17 0 -18 -2 -6 -10
21 -14 9 -12 -65 6 -50 13 -72 24 -95 51 -27 30 -30 41 -30 97 0 51 5 70 25
100 14 20 25 41 25 46 0 6 5 10 11 10 5 0 8 -4 4 -10 -3 -5 11 -3 32 5 51 18
71 18 118 -4z m29 -359 c3 -5 -1 -9 -9 -9 -8 0 -12 4 -9 9 3 4 7 8 9 8 2 0 6
-4 9 -8z"/>
<path d="M3030 2220 c-37 -7 -80 -29 -80 -42 0 -5 -4 -8 -10 -8 -5 0 -10 9
-10 20 0 18 -7 20 -60 20 l-60 0 0 -255 0 -255 60 0 60 0 2 187 3 187 40 23
c30 18 52 23 88 21 l47 -3 0 51 c0 46 -3 52 -22 56 -13 2 -39 1 -58 -2z m-113
-432 c-1 -46 -3 -11 -3 77 0 88 2 125 3 83 2 -42 2 -114 0 -160z"/>
<path d="M3987 2220 c-21 -4 -52 -17 -68 -29 l-30 -23 -6 21 c-5 18 -13 21
-59 21 l-54 0 0 -255 0 -255 60 0 60 0 2 187 3 187 40 23 c55 31 118 31 150
-2 14 -13 25 -31 25 -40 0 -9 3 -14 8 -12 4 3 6 -73 4 -169 l-3 -174 61 0 60
0 0 174 c0 177 -6 240 -21 230 -5 -3 -6 1 -3 9 8 21 -51 84 -89 95 -49 15 -98
19 -140 12z"/>
<path d="M2590 1955 l0 -255 60 0 60 0 0 255 0 255 -60 0 -60 0 0 -255z m17
-102 c-1 -59 -3 -13 -3 102 0 116 2 164 3 108 2 -56 2 -151 0 -210z"/>
</g>
</svg>
