<?xml version="1.0" standalone="no"?>
<!DOCTYPE svg PUBLIC "-//W3C//DTD SVG 20010904//EN"
 "http://www.w3.org/TR/2001/REC-SVG-20010904/DTD/svg10.dtd">
<svg version="1.0" xmlns="http://www.w3.org/2000/svg"
 width="512.000000pt" height="365.000000pt" viewBox="0 0 512.000000 365.000000"
 preserveAspectRatio="xMidYMid meet">

<g transform="translate(0.000000,365.000000) scale(0.100000,-0.100000)"
fill="white" stroke="none">
<path d="M2480 2733 c-85 -31 -132 -64 -177 -127 -44 -61 -114 -197 -107 -208
3 -4 1 -8 -5 -8 -14 0 -83 -139 -75 -152 4 -6 3 -8 -3 -5 -12 8 -46 -61 -37
-75 4 -6 3 -8 -3 -5 -14 9 -53 -77 -46 -104 3 -18 2 -20 -5 -10 -8 11 -12 10
-21 -8 -7 -12 -9 -27 -5 -34 4 -6 4 -9 0 -5 -12 10 -128 -231 -121 -252 3 -10
1 -21 -4 -25 -7 -3 -8 0 -5 9 3 9 4 16 1 16 -11 0 -47 -92 -40 -103 3 -5 2 -7
-3 -4 -14 8 -116 -225 -108 -249 4 -14 3 -15 -4 -5 -7 10 -13 -6 -23 -58 -15
-85 -4 -162 34 -244 31 -65 96 -134 110 -115 6 10 7 8 3 -4 -12 -40 127 -100
239 -102 71 -1 165 19 165 36 0 5 6 8 13 6 22 -4 58 13 51 24 -4 7 -2 8 4 4 6
-4 35 10 64 30 82 57 81 56 66 67 -10 6 -9 8 4 4 18 -6 52 25 41 38 -5 4 -3 5
4 2 15 -9 45 21 36 36 -3 7 -3 9 2 5 4 -4 14 -3 21 3 9 8 21 3 45 -20 17 -17
35 -28 40 -25 5 3 6 -2 3 -10 -6 -15 22 -35 44 -30 7 1 8 0 2 -3 -22 -10 21
-43 49 -38 20 4 22 3 7 -3 -18 -8 -17 -10 12 -31 18 -12 37 -19 43 -15 7 4 9
3 6 -3 -8 -12 61 -46 75 -37 6 4 8 2 5 -3 -10 -16 86 -37 163 -37 72 0 174 29
164 46 -4 7 -2 8 4 4 6 -4 24 0 40 8 41 21 134 126 128 143 -3 8 -2 12 3 8 19
-11 53 107 53 185 0 92 -11 127 -97 318 -60 131 -71 150 -84 139 -14 -10 -14
-10 -3 4 10 13 9 23 -3 53 -10 22 -20 34 -27 30 -7 -4 -8 -3 -4 4 9 15 -21 85
-34 77 -5 -3 -7 0 -4 8 5 13 -148 333 -165 347 -3 3 -7 12 -9 19 -5 25 -93
195 -109 214 -9 9 -13 17 -9 17 4 0 2 9 -4 20 -6 11 -15 18 -20 15 -6 -4 -7 1
-3 11 4 12 3 15 -5 10 -7 -4 -10 -2 -7 7 8 20 -52 98 -70 91 -8 -4 -15 -1 -15
6 0 6 5 8 10 5 6 -3 10 -2 10 2 0 14 -93 70 -135 82 -41 11 -138 14 -165 4z
m170 -118 c14 -7 38 -27 54 -43 17 -19 35 -28 45 -25 13 4 14 3 2 -5 -11 -8
-12 -14 -4 -24 6 -7 48 -86 93 -175 48 -96 86 -160 93 -156 5 3 7 1 4 -5 -8
-12 2 -44 12 -37 4 2 7 -6 7 -18 -1 -13 4 -21 12 -19 8 1 11 -2 8 -7 -3 -5 -3
-17 0 -26 6 -13 9 -14 16 -3 7 9 8 7 3 -8 -4 -14 17 -66 63 -160 38 -76 100
-205 137 -286 38 -81 71 -147 74 -146 18 2 24 -3 13 -10 -10 -7 -6 -22 15 -68
23 -50 27 -72 26 -144 0 -111 -5 -154 -14 -139 -4 8 -9 6 -13 -7 -18 -52 -101
-116 -180 -139 -65 -19 -126 -15 -198 12 -24 8 -51 15 -62 15 -10 -1 -16 2
-12 5 3 3 -20 25 -52 48 -31 24 -81 68 -111 98 -43 45 -52 59 -43 70 7 8 8 18
4 22 -4 5 -2 5 4 2 6 -3 21 7 32 23 24 31 28 45 12 35 -5 -3 -10 -1 -10 5 0 7
7 10 15 6 10 -4 29 19 65 80 28 47 48 89 45 95 -4 5 -3 9 2 9 18 0 72 173 73
233 0 42 -21 118 -31 111 -5 -3 -6 2 -3 10 7 19 -26 77 -39 69 -6 -3 -7 -1 -3
5 10 17 -50 70 -112 98 -70 32 -188 34 -258 3 -55 -23 -137 -86 -129 -99 3 -5
-1 -13 -10 -17 -22 -13 -55 -119 -55 -177 0 -67 9 -96 29 -96 12 0 13 -2 3 -9
-14 -9 -9 -47 13 -91 7 -14 21 -44 30 -67 10 -23 22 -40 28 -36 6 3 7 1 3 -5
-9 -14 38 -85 49 -74 5 4 5 1 1 -6 -5 -9 8 -35 37 -72 35 -44 45 -67 45 -92
-1 -18 -3 -27 -6 -20 -3 9 -19 0 -48 -29 -24 -23 -41 -46 -38 -51 3 -5 2 -8
-3 -7 -20 3 -34 -2 -28 -11 4 -6 3 -9 -2 -8 -13 5 -84 -43 -78 -53 4 -5 -1 -6
-10 -3 -8 4 -21 1 -28 -5 -24 -19 -133 -41 -194 -39 -34 2 -59 6 -56 11 2 4
-2 7 -9 7 -7 0 -36 16 -65 35 -28 19 -53 31 -56 27 -2 -4 -3 -2 -1 5 1 6 -4
19 -12 30 -63 81 -72 206 -24 324 16 40 26 77 23 83 -3 6 -3 8 2 4 9 -9 60 91
51 100 -3 3 -6 0 -6 -6 0 -7 -6 -12 -12 -12 -7 1 -1 11 14 23 30 25 81 134 73
154 -2 8 -1 11 5 8 14 -9 42 53 35 78 -4 14 -3 17 2 9 11 -15 47 54 37 70 -4
6 -2 8 3 5 11 -7 36 43 36 69 0 7 3 11 7 9 11 -7 40 63 34 82 -4 12 -3 14 3 6
11 -15 167 293 157 309 -4 6 -3 8 3 5 12 -8 46 61 37 75 -4 6 -2 8 3 5 6 -4
21 9 33 30 15 26 18 38 10 43 -9 5 -9 9 -1 14 6 4 11 2 11 -5 0 -7 15 3 32 22
18 19 33 37 33 41 0 3 4 10 9 15 6 5 6 2 1 -6 -6 -11 -4 -13 11 -6 63 26 133
26 184 0z m28 7 c2 -7 -2 -10 -12 -6 -9 3 -16 11 -16 16 0 13 23 5 28 -10z
m-403 -101 c-3 -6 -11 -11 -16 -11 -5 0 -4 6 3 14 14 16 24 13 13 -3z m-44
-84 c-10 -9 -11 -8 -5 6 3 10 9 15 12 12 3 -3 0 -11 -7 -18z m749 -158 c0 -6
-4 -7 -10 -4 -5 3 -10 11 -10 16 0 6 5 7 10 4 6 -3 10 -11 10 -16z m-873 -81
c-3 -8 -6 -5 -6 6 -1 11 2 17 5 13 3 -3 4 -12 1 -19z m933 -188 c0 -5 -5 -10
-11 -10 -5 0 -7 5 -4 10 3 6 8 10 11 10 2 0 4 -4 4 -10z m-475 -76 c75 1 80
-1 147 -65 21 -20 39 -35 41 -33 1 2 4 -5 5 -14 1 -9 4 -43 8 -74 7 -66 -17
-159 -66 -251 -16 -31 -28 -62 -26 -69 1 -7 1 -9 -2 -5 -2 4 -15 -6 -28 -24
-13 -18 -21 -37 -17 -43 3 -6 3 -8 -2 -4 -5 5 -19 -8 -32 -27 -13 -19 -28 -35
-33 -35 -10 0 -63 72 -115 155 -20 33 -34 51 -31 40 4 -11 3 -16 -1 -11 -4 4
-9 17 -10 29 -1 12 -13 54 -27 92 -31 87 -34 169 -6 229 10 23 26 48 34 55 9
8 13 18 10 23 -3 5 0 8 7 7 25 -5 59 12 59 29 0 11 3 13 8 6 4 -7 36 -11 77
-10z m-538 -70 c-3 -3 -12 -4 -19 -1 -8 3 -5 6 6 6 11 1 17 -2 13 -5z m-116
-67 c-10 -9 -11 -8 -5 6 3 10 9 15 12 12 3 -3 0 -11 -7 -18z m1433 -272 c3 -8
1 -15 -4 -15 -6 0 -10 7 -10 15 0 8 2 15 4 15 2 0 6 -7 10 -15z m-1524 -104
c0 -6 -4 -13 -10 -16 -5 -3 -10 1 -10 9 0 9 5 16 10 16 6 0 10 -4 10 -9z m644
-23 c7 -5 4 -8 -6 -8 -12 0 -18 7 -17 23 0 15 2 17 6 7 3 -8 11 -18 17 -22z
m273 -30 c-3 -8 -6 -5 -6 6 -1 11 2 17 5 13 3 -3 4 -12 1 -19z m670 -20 c-3
-8 -6 -5 -6 6 -1 11 2 17 5 13 3 -3 4 -12 1 -19z m-1627 -90 c0 -15 -19 -46
-21 -35 -7 35 -4 47 12 47 5 0 9 -6 9 -12z m1637 -60 c-3 -8 -6 -5 -6 6 -1 11
2 17 5 13 3 -3 4 -12 1 -19z m-977 -78 c0 -5 -5 -10 -11 -10 -5 0 -7 5 -4 10
3 6 8 10 11 10 2 0 4 -4 4 -10z m-680 -71 c0 -6 -4 -7 -10 -4 -5 3 -10 11 -10
16 0 6 5 7 10 4 6 -3 10 -11 10 -16z m1498 -113 c-7 -8 -15 -12 -17 -11 -5 6
10 25 20 25 5 0 4 -6 -3 -14z m-1031 -42 c-3 -3 -12 -4 -19 -1 -8 3 -5 6 6 6
11 1 17 -2 13 -5z"/>
</g>
</svg>
